<svg version="1.2" xmlns="http://www.w3.org/2000/svg" viewBox="0 0 800 535" width="800" height="434"><defs><linearGradient id="P" gradientUnits="userSpaceOnUse"/><linearGradient id="g1" x2="1" href="#P" gradientTransform="matrix(0,-528.818,528.818,0,50.792,592.604)"><stop stop-color="#f58b1f"/><stop offset="1" stop-color="#faa918"/></linearGradient><linearGradient id="g2" x2="1" href="#P" gradientTransform="matrix(0,-528.818,998.879,0,-206.649,592.604)"><stop stop-color="#f58b1f"/><stop offset="1" stop-color="#faa918"/></linearGradient><linearGradient id="g3" x2="1" href="#P" gradientTransform="matrix(0,-528.818,528.818,0,50.792,592.604)"><stop stop-color="#f58b1f"/><stop offset="1" stop-color="#faa918"/></linearGradient></defs><style>.a{fill:url(#g1)}.b{fill:url(#g2)}.c{fill:url(#g3)}.d{fill:#e4d3c7}</style><path class="a" d="m124.1 47.7c0-20.2-16.4-36.6-36.7-36.6-20.2 0-36.6 16.4-36.6 36.6 0 20.2 16.4 36.6 36.6 36.6 20.3 0 36.7-16.4 36.7-36.6z"/><path class="b" d="m125 267.5c26.6-13.7 44.8-41.4 44.8-73.3 0-45.4-36.9-82.4-82.4-82.4-45.4 0-82.4 37-82.4 82.4 0 31.9 18.3 59.6 44.8 73.3-26.5 13.7-44.8 41.4-44.8 73.3 0 45.4 37 82.4 82.4 82.4 45.5 0 82.4-37 82.4-82.4 0-31.9-18.2-59.6-44.8-73.3zm-101.7-73.3c0-35.3 28.8-64.1 64.1-64.1 1.4 0 2.7 0.2 4.1 0.2 20 2.1 35.6 19 35.6 39.5 0 21.9-17.8 39.7-39.7 39.7-8.4 0-15.2-6.8-15.2-15.3 0-8.4 6.8-15.2 15.2-15.2 5.1 0 9.2-4.1 9.2-9.2 0-5-4.1-9.1-9.2-9.1-18.5 0-33.6 15-33.6 33.5 0 18.5 15.1 33.6 33.6 33.6 32 0 58-26 58-58 0-1-0.1-2-0.1-3 3.9 8.3 6.2 17.6 6.2 27.4 0 35.4-28.7 64.1-64.1 64.1-35.3 0-64.1-28.7-64.1-64.1zm64.1 210.7c-1.3 0-2.7-0.2-4-0.2-20-2.1-35.7-19-35.7-39.5 0-21.9 17.8-39.7 39.7-39.7 8.4 0 15.3 6.8 15.3 15.3 0 8.4-6.9 15.2-15.3 15.2-5 0-9.1 4.1-9.1 9.2 0 5 4.1 9.1 9.1 9.1 18.5 0 33.6-15 33.6-33.5 0-18.5-15.1-33.6-33.6-33.6-32 0-58 26-58 58 0 1 0.1 2 0.2 3-4-8.3-6.3-17.6-6.3-27.4 0-35.4 28.8-64.1 64.1-64.1 35.4 0 64.1 28.7 64.1 64.1 0 35.3-28.7 64.1-64.1 64.1z"/><path class="c" d="m87.4 450.7c-20.2 0-36.6 16.4-36.6 36.6 0 20.2 16.4 36.6 36.6 36.6 20.3 0 36.7-16.4 36.7-36.6 0-20.2-16.4-36.6-36.7-36.6zm0 18.3c10.1 0 18.3 8.2 18.3 18.3 0 10.1-8.2 18.3-18.3 18.3-10.1 0-18.3-8.2-18.3-18.3 0-10.1 8.2-18.3 18.3-18.3z"/><path class="d" d="m291.2 225.8q2.3 2.3 2.3 5.2 0 3.3-2.3 5.4-2.3 2.1-5.7 2.1h-43.5q-3.4 0-5.6-2.3-2.3-2.3-2.3-5.7v-75.1q0-3.4 2.3-5.6 2.2-2.3 5.6-2.3h43.5q3.4 0 5.7 2.1 2.3 2.2 2.3 5.5 0 3.3-2.2 5.3-2.2 2-5.8 2h-35.2v22.1h29.4q3.4 0 5.7 2.2 2.2 2.1 2.2 5.5 0 3.2-2.2 5.3-2.2 2-5.7 2h-29.4v24h35.2q3.4 0 5.7 2.3z"/><path class="d" d="m368.3 171.1q2.2 2.2 2.2 5.8v79.6q0 3.4-2.2 5.7-2.2 2.2-5.6 2.2-3.3 0-5.5-2.2-2.3-2.3-2.3-5.7v-25.7q-3.2 3.6-8.7 6.3-5.6 2.7-11.7 2.7-8.9 0-16.2-4.7-7.3-4.6-11.5-12.8-4.2-8.1-4.2-18.5 0-10.4 4.1-18.7 4.2-8.2 11.4-12.9 7.2-4.6 15.9-4.6 6.4 0 11.8 2.4 5.5 2.3 9.1 5.8 0.4-3 2.6-4.9 2.1-2 5.2-2 3.4 0 5.6 2.2zm-18 48.2q5.3-6.2 5.3-15.5 0-9.4-5.3-15.6-5.4-6.3-13.8-6.3-8.3 0-13.7 6.3-5.3 6.2-5.3 15.6 0 9.3 5.3 15.5 5.2 6.2 13.7 6.2 8.4 0 13.8-6.2z"/><path class="d" d="m444.6 171.2q2.2 2.3 2.2 5.7v33q0 14-7.7 21.9-7.7 8-22 8-14.3 0-22-8-7.7-7.9-7.7-21.9v-33q0-3.4 2.2-5.7 2.3-2.3 5.6-2.3 3.4 0 5.6 2.3 2.2 2.3 2.2 5.7v33q0 7.9 3.5 11.7 3.6 3.9 10.6 3.9 7.1 0 10.6-3.9 3.5-3.8 3.5-11.7v-33q0-3.4 2.2-5.7 2.3-2.3 5.6-2.3 3.4 0 5.6 2.3z"/><path class="d" d="m464.2 159q-1.8-1.4-1.8-5v-2.5q0-3.6 2-5.1 1.9-1.4 6.2-1.4 4.6 0 6.4 1.4 1.8 1.5 1.8 5.1v2.5q0 3.7-1.9 5.1-1.9 1.4-6.4 1.4-4.4 0-6.3-1.5zm12 77.2q-2.2 2.3-5.6 2.3-3.4 0-5.6-2.3-2.2-2.3-2.2-5.7v-53.6q0-3.4 2.2-5.7 2.2-2.3 5.6-2.3 3.4 0 5.6 2.3 2.2 2.3 2.2 5.7v53.6q0 3.4-2.2 5.7z"/><path class="d" d="m509 236.2q-2.3 2.3-5.6 2.3-3.3 0-5.5-2.3-2.2-2.3-2.2-5.7v-80.3q0-3.4 2.3-5.6 2.2-2.3 5.6-2.3 3.3 0 5.5 2.3 2.2 2.2 2.2 5.6v80.3q0 3.4-2.3 5.7z"/><path class="d" d="m542 236.2q-2.2 2.3-5.6 2.3-3.4 0-5.6-2.3-2.2-2.3-2.2-5.7v-53.6q0-3.4 2.2-5.7 2.2-2.3 5.6-2.3 3.4 0 5.6 2.3 2.2 2.3 2.2 5.7v53.6q0 3.4-2.2 5.7zm-7.8-72.9q-1.5-1.1-1.3-3.1 0-1.2 0.7-2.5l7.6-13.2q1.3-2.3 3.1-3.8 1.8-1.4 4-1.4 3.5 0 5.3 1.8 1.7 1.8 1.6 4.7-0.2 3-2.4 5.6l-9.9 10.9q-2.1 2.2-5.9 2.2-1.3 0-2.8-1.2z"/><path class="d" d="m612.4 172.2q7.3 4.6 11.5 12.8 4.2 8.2 4.2 18.6 0 10.4-4.1 18.7-4.2 8.2-11.4 12.8-7.2 4.7-15.9 4.7-6.3 0-11.8-2.6-5.5-2.5-9.1-6.2v0.8q0 3.4-2.3 5.7-2.2 2.3-5.5 2.3-3.4 0-5.6-2.3-2.2-2.2-2.2-5.7v-81.6q0-3.4 2.2-5.6 2.2-2.3 5.6-2.3 3.3 0 5.5 2.3 2.3 2.2 2.3 5.6v27.2q3.1-3.9 8.7-6.9 5.5-2.9 11.7-2.9 8.9 0 16.2 4.6zm-4.5 47q5.3-6.2 5.3-15.6 0-9.3-5.3-15.5-5.2-6.2-13.7-6.2-8.4 0-13.8 6.2-5.3 6.2-5.3 15.5 0 9.4 5.3 15.6 5.4 6.3 13.8 6.3 8.3 0 13.7-6.3z"/><path class="d" d="m683.8 169.8q2.7 2.2 2.7 5.2 0 4.1-2.1 6.1-2.1 2-4.9 2-2 0-4.5-0.9-0.3-0.1-1.7-0.5-1.4-0.4-2.9-0.4-3.4 0-6.5 2-3.2 2.1-5.2 6.4-2 4.2-2 10v30.8q0 3.4-2.2 5.7-2.2 2.3-5.6 2.3-3.4 0-5.6-2.3-2.2-2.3-2.2-5.7v-53.6q0-3.4 2.2-5.7 2.2-2.3 5.6-2.3 3.4 0 5.6 2.3 2.2 2.3 2.2 5.7v1.6q3-5.3 8.6-8.1 5.6-2.8 12-2.8 3.9 0 6.5 2.2z"/><path class="d" d="m698 159q-1.8-1.4-1.8-5v-2.5q0-3.6 2-5.1 1.9-1.4 6.2-1.4 4.6 0 6.4 1.4 1.8 1.5 1.8 5.1v2.5q0 3.7-1.9 5.1-1.9 1.4-6.4 1.4-4.4 0-6.3-1.5zm12 77.2q-2.2 2.3-5.6 2.3-3.4 0-5.6-2.3-2.2-2.3-2.2-5.7v-53.6q0-3.4 2.2-5.7 2.2-2.3 5.6-2.3 3.4 0 5.6 2.3 2.2 2.3 2.2 5.7v53.6q0 3.4-2.2 5.7z"/><path class="d" d="m790.3 222.4q-4.7 8.3-12.8 12.8-8.1 4.6-17.8 4.6-9.9 0-18-4.6-8-4.5-12.7-12.8-4.7-8.2-4.7-18.6 0-10.4 4.7-18.7 4.7-8.2 12.7-12.9 8.1-4.6 18-4.6 9.7 0 17.8 4.6 8.1 4.7 12.8 12.9 4.7 8.3 4.7 18.7 0 10.4-4.7 18.6zm-13.6-30q-2.6-5-7.1-7.8-4.5-2.7-9.9-2.7-5.5 0-10 2.7-4.5 2.8-7.1 7.8-2.7 5-2.7 11.4 0 6.3 2.7 11.3 2.6 4.9 7.1 7.6 4.5 2.8 10 2.8 5.4 0 9.9-2.8 4.5-2.7 7.1-7.6 2.7-5 2.7-11.3 0-6.4-2.7-11.4z"/><path class="d" d="m294.6 300.4q2.3 2.3 2.3 5.8v80.3q0 3.4-2.3 5.6-2.2 2.3-5.5 2.3-3.4 0-5.6-2.2-2.1-2.2-2.2-5.6-3.3 3.8-8.8 6.4-5.5 2.7-11.6 2.7-9 0-16.3-4.6-7.3-4.6-11.5-12.8-4.2-8.2-4.2-18.6 0-10.4 4.1-18.6 4.2-8.3 11.4-12.9 7.2-4.6 15.9-4.6 6.3 0 11.7 2.3 5.5 2.2 9.3 5.7v-25.4q0-3.4 2.2-5.7 2.2-2.3 5.6-2.3 3.3 0 5.5 2.2zm-18 74.8q5.3-6.1 5.3-15.5 0-9.3-5.3-15.6-5.4-6.2-13.8-6.2-8.3 0-13.6 6.2-5.4 6.3-5.4 15.6 0 9.4 5.3 15.5 5.3 6.2 13.7 6.2 8.4 0 13.8-6.2z"/><path class="d" d="m375.9 378.4q-4.7 8.2-12.8 12.8-8.2 4.5-17.9 4.5-9.9 0-17.9-4.5-8.1-4.6-12.8-12.8-4.7-8.3-4.7-18.7 0-10.4 4.7-18.6 4.7-8.3 12.8-12.9 8-4.6 17.9-4.6 9.7 0 17.9 4.6 8.1 4.6 12.8 12.9 4.6 8.2 4.6 18.6 0 10.4-4.6 18.7zm-13.6-30.1q-2.7-5-7.2-7.7-4.4-2.7-9.9-2.7-5.5 0-9.9 2.7-4.5 2.7-7.2 7.7-2.7 5-2.7 11.4 0 6.4 2.7 11.3 2.7 5 7.2 7.7 4.4 2.7 9.9 2.7 5.5 0 9.9-2.7 4.5-2.7 7.2-7.7 2.7-4.9 2.7-11.3 0-6.4-2.7-11.4z"/><path class="d" d="m443.8 393.4q-7.2-2.4-13.6-8-3.5-3.1-3.5-6.8 0-3 2.2-5.3 2.2-2.3 5.3-2.3 2.5 0 4.4 1.6 5.2 4.3 10.2 6.2 4.9 2 11.7 2 7.3 0 12.5-3.3 5.3-3.2 5.3-8 0-5.9-5.2-9.2-5.2-3.3-16.5-5-28.5-4.2-28.5-26.5 0-8.2 4.3-14.3 4.3-6 11.7-9.2 7.4-3.2 16.5-3.2 8.2 0 15.4 2.5 7.2 2.5 12 6.5 3.8 3 3.8 6.9 0 3-2.2 5.3-2.2 2.2-5.2 2.2-2 0-3.5-1.1-3.4-2.8-9.4-5-6.1-2.3-10.9-2.3-8.2 0-12.7 3-4.4 3.1-4.4 8 0 5.6 4.6 8.5 4.6 2.8 14.5 4.7 11.1 1.9 17.8 5 6.7 3 10.1 8.3 3.4 5.2 3.4 13.9 0 8.2-4.6 14.4-4.6 6.2-12.3 9.5-7.7 3.3-16.5 3.3-9.4 0-16.7-2.3z"/><path class="d" d="m567.4 363.1q-2.3 1.9-5.4 1.9h-42.9q1.5 7.7 7.1 12.1 5.6 4.3 12.6 4.3 5.4 0 8.4-1 3-0.9 4.7-2 1.8-1.1 2.4-1.5 2.3-1.2 4.4-1.2 2.8 0 4.7 1.9 2 2 2 4.6 0 3.5-3.7 6.4-3.6 3-9.7 5-6.1 2.1-12.4 2.1-10.9 0-19-4.5-8.1-4.6-12.6-12.6-4.4-8-4.4-18 0-11.2 4.7-19.6 4.7-8.5 12.3-12.9 7.7-4.5 16.4-4.5 8.6 0 16.2 4.7 7.6 4.6 12.2 12.6 4.5 7.9 4.5 17.1-0.1 3.1-2.5 5.1zm-48.2-11.1h34.1v-0.9q-0.5-5.4-5.4-9.3-4.8-3.9-10.9-3.9-15 0-17.8 14.1z"/><path class="d" d="m625.6 325.8q2.7 2.2 2.7 5.2 0 4-2.1 6-2.1 2-5 2-1.9 0-4.4-0.9-0.4-0.1-1.7-0.5-1.4-0.4-3-0.4-3.3 0-6.5 2.1-3.1 2.1-5.1 6.3-2 4.2-2 10.1v30.8q0 3.4-2.2 5.6-2.2 2.3-5.6 2.3-3.4 0-5.6-2.3-2.2-2.2-2.2-5.6v-53.7q0-3.4 2.2-5.6 2.2-2.3 5.6-2.3 3.4 0 5.6 2.3 2.2 2.2 2.2 5.6v1.7q3-5.3 8.6-8.1 5.6-2.8 11.9-2.8 3.9 0 6.6 2.2z"/></svg>